Coordinates
version=1
nRows=5
nColumns=42
inDegrees=yes

Units are S.I. units (second, meters, Newtons, ...)
If the header above contains a line with 'inDegrees', this indicates whether rotational values are in degrees (yes) or radians (no).

endheader
time	pelvis_tilt	pelvis_list	pelvis_rotation	pelvis_tx	pelvis_ty	pelvis_tz	hip_flexion_r	hip_adduction_r	hip_rotation_r	knee_angle_r	knee_adduction_r	knee_angle_r_beta	ankle_angle_r	subtalar_angle_r	mtp_angle_r	hip_flexion_l	hip_adduction_l	hip_rotation_l	knee_angle_l	knee_adduction_l	knee_angle_l_beta	ankle_angle_l	subtalar_angle_l	mtp_angle_l	lumbar_extension	lumbar_bending	lumbar_rotation	arm_flex_r	arm_add_r	arm_rot_r	elbow_flex_r	pro_sup_r	wrist_flex_r	wrist_dev_r	arm_flex_l	arm_add_l	arm_rot_l	elbow_flex_l	pro_sup_l	wrist_flex_l	wrist_dev_l
      2.83000000	      2.76689781	      6.51689037	      5.79007249	      0.08243382	      0.99613798	      0.31305252	      8.57976072	     -6.82270213	    -20.40720216	      9.79832540	      0.61817351	      0.17101304	     -1.04620384	      5.73058568	     -7.51838660	    -13.67601698	      1.34789425	     -0.29225366	     24.02167481	      3.69801829	      0.41925732	      1.83159316	      5.23749962	     -7.51838660	    -22.04739726	     -7.17258662	     -8.91307395	     -8.89094962	    -11.13470217	     21.22632745	     37.83412158	     90.00000001	      0.00000000	      0.00000000	     14.70196758	    -21.57123413	     13.03198233	     48.47190488	     90.00000001	      0.00000000	      0.00000000
      2.84000000	      2.78853800	      6.43905475	      5.94606488	      0.08951366	      0.99729780	      0.31447156	      7.74581360	     -6.53291841	    -20.86407398	      9.11997850	      0.63225502	      0.15917365	     -0.92117234	      6.36019363	     -7.51782877	    -12.36725989	      0.68898100	     -0.16099227	     27.02278348	      4.27164281	      0.47163654	      0.77217141	      4.02318915	     -7.51782877	    -22.08066310	     -7.08338246	     -8.85939806	     -8.32430280	    -11.20659868	     21.33245398	     37.99085719	     90.00000001	      0.00000000	      0.00000000	     14.11764748	    -21.62408794	     13.06382610	     48.37256191	     90.00000001	      0.00000000	      0.00000000
      2.85000000	      2.97838084	      6.65800773	      5.98759208	      0.09652688	      0.99866469	      0.31569108	      6.75444403	     -6.65568802	    -21.00099640	      8.60951891	      0.86020675	      0.15026445	     -0.49029869	      6.70364557	     -7.51752208	    -11.34806921	      0.41062583	      0.10365602	     29.69818760	      4.80584642	      0.51833116	     -0.29543560	      3.42872672	     -7.51752208	    -22.34134039	     -7.30288551	     -8.76784335	     -7.76990080	    -11.31546127	     21.32380727	     38.25258253	     90.00000001	      0.00000000	      0.00000000	     13.61947396	    -21.65185715	     13.01669015	     48.26502641	     90.00000001	      0.00000000	      0.00000000
      2.86000000	      3.09120143	      6.72993552	      5.99935719	      0.10334620	      0.99971512	      0.31716963	      5.91091611	     -6.54468566	    -21.18142702	      8.08481450	      0.94075246	      0.14110663	     -0.25018527	      7.06047527	     -7.51718124	    -10.09066066	     -0.06650831	      0.32428276	     32.54230003	      5.42032369	      0.56797028	     -1.13865337	      2.62003424	     -7.51718124	    -22.49504172	     -7.41976189	     -8.57841657	     -7.18027774	    -11.45282266	     21.40280839	     38.51295960	     90.00000001	      0.00000000	      0.00000000	     13.08153774	    -21.68471119	     12.84843343	     48.24216639	     90.00000001	      0.00000000	      0.00000000
      2.87000000	      3.19941609	      6.77119928	      5.96741769	      0.10998457	      1.00061548	      0.31865449	      5.13372425	     -6.40721975	    -21.24972485	      7.63922813	      1.03613821	      0.13332968	     -0.01430062	      7.38664731	     -7.51683674	     -8.78012083	     -0.56487628	      0.56741989	     35.30650401	      6.03137496	      0.61621474	     -1.79703571	      1.84762748	     -7.51683674	    -22.64593966	     -7.51438107	     -8.34273685	     -6.53495175	    -11.62488752	     21.51599270	     38.79327747	     90.00000001	      0.00000000	      0.00000000	     12.51063642	    -21.70854602	     12.57985223	     48.21864630	     90.00000001	      0.00000000	      0.00000000
